<mxfile host="app.diagrams.net" agent="Mozilla/5.0 (Windows NT 10.0; Win64; x64) AppleWebKit/537.36 (KHTML, like Gecko) Chrome/134.0.0.0 Safari/537.36 Edg/134.0.0.0" version="26.1.1" pages="3">
  <diagram name="Página-1" id="cgs9fcY_MdLF6vxdl5zY">
    <mxGraphModel dx="1426" dy="781" grid="1" gridSize="10" guides="1" tooltips="1" connect="1" arrows="1" fold="1" page="1" pageScale="1" pageWidth="827" pageHeight="1169" math="0" shadow="0">
      <root>
        <mxCell id="0" />
        <mxCell id="1" parent="0" />
        <mxCell id="d-VJ-QEy7T55_uepb2rt-17" value="Coletor" style="swimlane;horizontal=0;whiteSpace=wrap;html=1;" vertex="1" parent="1">
          <mxGeometry x="90" y="1219" width="770" height="200" as="geometry" />
        </mxCell>
        <mxCell id="d-VJ-QEy7T55_uepb2rt-33" style="edgeStyle=orthogonalEdgeStyle;rounded=0;orthogonalLoop=1;jettySize=auto;html=1;" edge="1" parent="d-VJ-QEy7T55_uepb2rt-17" source="d-VJ-QEy7T55_uepb2rt-31">
          <mxGeometry relative="1" as="geometry">
            <mxPoint x="290" y="100" as="targetPoint" />
          </mxGeometry>
        </mxCell>
        <mxCell id="d-VJ-QEy7T55_uepb2rt-31" value="Recebimento de rota de coleta pelo waze" style="rounded=1;whiteSpace=wrap;html=1;" vertex="1" parent="d-VJ-QEy7T55_uepb2rt-17">
          <mxGeometry x="90" y="70" width="120" height="60" as="geometry" />
        </mxCell>
        <mxCell id="d-VJ-QEy7T55_uepb2rt-36" style="edgeStyle=orthogonalEdgeStyle;rounded=0;orthogonalLoop=1;jettySize=auto;html=1;" edge="1" parent="d-VJ-QEy7T55_uepb2rt-17" source="d-VJ-QEy7T55_uepb2rt-35">
          <mxGeometry relative="1" as="geometry">
            <mxPoint x="470" y="100" as="targetPoint" />
          </mxGeometry>
        </mxCell>
        <mxCell id="d-VJ-QEy7T55_uepb2rt-35" value="Realizar rota de coleta" style="rounded=1;whiteSpace=wrap;html=1;" vertex="1" parent="d-VJ-QEy7T55_uepb2rt-17">
          <mxGeometry x="290" y="70" width="120" height="60" as="geometry" />
        </mxCell>
        <mxCell id="d-VJ-QEy7T55_uepb2rt-38" style="edgeStyle=orthogonalEdgeStyle;rounded=0;orthogonalLoop=1;jettySize=auto;html=1;" edge="1" parent="d-VJ-QEy7T55_uepb2rt-17" source="d-VJ-QEy7T55_uepb2rt-37">
          <mxGeometry relative="1" as="geometry">
            <mxPoint x="530" y="260" as="targetPoint" />
          </mxGeometry>
        </mxCell>
        <mxCell id="d-VJ-QEy7T55_uepb2rt-37" value="Recolhimento do lixo" style="rounded=1;whiteSpace=wrap;html=1;" vertex="1" parent="d-VJ-QEy7T55_uepb2rt-17">
          <mxGeometry x="470" y="70" width="120" height="60" as="geometry" />
        </mxCell>
        <mxCell id="d-VJ-QEy7T55_uepb2rt-18" value="Modelo (Sistema)" style="swimlane;horizontal=0;whiteSpace=wrap;html=1;" vertex="1" parent="1">
          <mxGeometry x="90" y="1419" width="770" height="200" as="geometry" />
        </mxCell>
        <mxCell id="d-VJ-QEy7T55_uepb2rt-28" value="Gerar rota otimizada de coleta" style="rounded=1;whiteSpace=wrap;html=1;" vertex="1" parent="d-VJ-QEy7T55_uepb2rt-18">
          <mxGeometry x="90" y="70" width="120" height="60" as="geometry" />
        </mxCell>
        <mxCell id="d-VJ-QEy7T55_uepb2rt-39" value="Atualizar em tempo real a area que foi coletada" style="rounded=1;whiteSpace=wrap;html=1;" vertex="1" parent="d-VJ-QEy7T55_uepb2rt-18">
          <mxGeometry x="470" y="60" width="120" height="60" as="geometry" />
        </mxCell>
        <mxCell id="d-VJ-QEy7T55_uepb2rt-20" value="Governo" style="swimlane;horizontal=0;whiteSpace=wrap;html=1;" vertex="1" parent="1">
          <mxGeometry x="90" y="1619" width="770" height="200" as="geometry" />
        </mxCell>
        <mxCell id="d-VJ-QEy7T55_uepb2rt-25" value="Enviar requisição de coleta ao sistema" style="rounded=1;whiteSpace=wrap;html=1;" vertex="1" parent="d-VJ-QEy7T55_uepb2rt-20">
          <mxGeometry x="90" y="70" width="120" height="60" as="geometry" />
        </mxCell>
        <mxCell id="d-VJ-QEy7T55_uepb2rt-27" style="edgeStyle=orthogonalEdgeStyle;rounded=0;orthogonalLoop=1;jettySize=auto;html=1;" edge="1" parent="d-VJ-QEy7T55_uepb2rt-20" source="d-VJ-QEy7T55_uepb2rt-24" target="d-VJ-QEy7T55_uepb2rt-25">
          <mxGeometry relative="1" as="geometry" />
        </mxCell>
        <mxCell id="d-VJ-QEy7T55_uepb2rt-24" value="" style="ellipse;whiteSpace=wrap;html=1;aspect=fixed;fillColor=#d5e8d4;strokeColor=#82b366;" vertex="1" parent="d-VJ-QEy7T55_uepb2rt-20">
          <mxGeometry x="40" y="85" width="30" height="30" as="geometry" />
        </mxCell>
        <mxCell id="d-VJ-QEy7T55_uepb2rt-41" value="Acompanhamento da coleta de lixo" style="rounded=1;whiteSpace=wrap;html=1;" vertex="1" parent="d-VJ-QEy7T55_uepb2rt-20">
          <mxGeometry x="470" y="70" width="120" height="60" as="geometry" />
        </mxCell>
        <mxCell id="d-VJ-QEy7T55_uepb2rt-21" value="Aplicativo" style="swimlane;horizontal=0;whiteSpace=wrap;html=1;" vertex="1" parent="1">
          <mxGeometry x="90" y="2170" width="870" height="210" as="geometry" />
        </mxCell>
        <mxCell id="d-VJ-QEy7T55_uepb2rt-53" value="Recebimento de formulário" style="rounded=1;whiteSpace=wrap;html=1;" vertex="1" parent="d-VJ-QEy7T55_uepb2rt-21">
          <mxGeometry x="310" y="91" width="120" height="60" as="geometry" />
        </mxCell>
        <mxCell id="d-VJ-QEy7T55_uepb2rt-22" value="Cidadão (Aplicativo)" style="swimlane;horizontal=0;whiteSpace=wrap;html=1;" vertex="1" parent="1">
          <mxGeometry x="90" y="2380" width="870" height="200" as="geometry" />
        </mxCell>
        <mxCell id="d-VJ-QEy7T55_uepb2rt-47" style="edgeStyle=orthogonalEdgeStyle;rounded=0;orthogonalLoop=1;jettySize=auto;html=1;entryX=0;entryY=0.5;entryDx=0;entryDy=0;" edge="1" parent="d-VJ-QEy7T55_uepb2rt-22" source="d-VJ-QEy7T55_uepb2rt-45" target="d-VJ-QEy7T55_uepb2rt-46">
          <mxGeometry relative="1" as="geometry" />
        </mxCell>
        <mxCell id="d-VJ-QEy7T55_uepb2rt-45" value="" style="ellipse;whiteSpace=wrap;html=1;aspect=fixed;fillColor=#d5e8d4;strokeColor=#82b366;" vertex="1" parent="d-VJ-QEy7T55_uepb2rt-22">
          <mxGeometry x="290" y="91" width="40" height="40" as="geometry" />
        </mxCell>
        <mxCell id="d-VJ-QEy7T55_uepb2rt-50" style="edgeStyle=orthogonalEdgeStyle;rounded=0;orthogonalLoop=1;jettySize=auto;html=1;" edge="1" parent="d-VJ-QEy7T55_uepb2rt-22" source="d-VJ-QEy7T55_uepb2rt-46">
          <mxGeometry relative="1" as="geometry">
            <mxPoint x="580" y="111" as="targetPoint" />
          </mxGeometry>
        </mxCell>
        <mxCell id="d-VJ-QEy7T55_uepb2rt-46" value="Acesso ao aplicativo" style="rounded=1;whiteSpace=wrap;html=1;" vertex="1" parent="d-VJ-QEy7T55_uepb2rt-22">
          <mxGeometry x="390" y="81" width="120" height="60" as="geometry" />
        </mxCell>
        <mxCell id="d-VJ-QEy7T55_uepb2rt-51" value="Envio de formulário" style="rounded=1;whiteSpace=wrap;html=1;" vertex="1" parent="d-VJ-QEy7T55_uepb2rt-22">
          <mxGeometry x="580" y="81" width="120" height="60" as="geometry" />
        </mxCell>
        <mxCell id="d-VJ-QEy7T55_uepb2rt-29" style="edgeStyle=orthogonalEdgeStyle;rounded=0;orthogonalLoop=1;jettySize=auto;html=1;entryX=0.5;entryY=1;entryDx=0;entryDy=0;" edge="1" parent="1" source="d-VJ-QEy7T55_uepb2rt-25" target="d-VJ-QEy7T55_uepb2rt-28">
          <mxGeometry relative="1" as="geometry" />
        </mxCell>
        <mxCell id="d-VJ-QEy7T55_uepb2rt-32" style="edgeStyle=orthogonalEdgeStyle;rounded=0;orthogonalLoop=1;jettySize=auto;html=1;entryX=0.5;entryY=1;entryDx=0;entryDy=0;" edge="1" parent="1" source="d-VJ-QEy7T55_uepb2rt-28" target="d-VJ-QEy7T55_uepb2rt-31">
          <mxGeometry relative="1" as="geometry" />
        </mxCell>
        <mxCell id="d-VJ-QEy7T55_uepb2rt-42" style="edgeStyle=orthogonalEdgeStyle;rounded=0;orthogonalLoop=1;jettySize=auto;html=1;entryX=0.5;entryY=0;entryDx=0;entryDy=0;" edge="1" parent="1" source="d-VJ-QEy7T55_uepb2rt-39" target="d-VJ-QEy7T55_uepb2rt-41">
          <mxGeometry relative="1" as="geometry" />
        </mxCell>
        <mxCell id="d-VJ-QEy7T55_uepb2rt-43" value="Coleta de Lixo" style="text;html=1;align=center;verticalAlign=middle;whiteSpace=wrap;rounded=0;" vertex="1" parent="1">
          <mxGeometry x="400" y="1169" width="140" height="30" as="geometry" />
        </mxCell>
        <mxCell id="d-VJ-QEy7T55_uepb2rt-44" value="Feedback" style="text;html=1;align=center;verticalAlign=middle;whiteSpace=wrap;rounded=0;" vertex="1" parent="1">
          <mxGeometry x="480" y="1850" width="60" height="30" as="geometry" />
        </mxCell>
        <mxCell id="d-VJ-QEy7T55_uepb2rt-55" value="Modelo (Sistema)" style="swimlane;horizontal=0;whiteSpace=wrap;html=1;startSize=23;" vertex="1" parent="1">
          <mxGeometry x="90" y="1970" width="870" height="200" as="geometry" />
        </mxCell>
        <mxCell id="d-VJ-QEy7T55_uepb2rt-78" style="edgeStyle=orthogonalEdgeStyle;rounded=0;orthogonalLoop=1;jettySize=auto;html=1;entryX=0;entryY=0.5;entryDx=0;entryDy=0;" edge="1" parent="d-VJ-QEy7T55_uepb2rt-55" source="d-VJ-QEy7T55_uepb2rt-59" target="d-VJ-QEy7T55_uepb2rt-77">
          <mxGeometry relative="1" as="geometry" />
        </mxCell>
        <mxCell id="d-VJ-QEy7T55_uepb2rt-59" value="Treinar modelo" style="rounded=1;whiteSpace=wrap;html=1;" vertex="1" parent="d-VJ-QEy7T55_uepb2rt-55">
          <mxGeometry x="170" y="75" width="120" height="60" as="geometry" />
        </mxCell>
        <mxCell id="d-VJ-QEy7T55_uepb2rt-76" style="edgeStyle=orthogonalEdgeStyle;rounded=0;orthogonalLoop=1;jettySize=auto;html=1;entryX=0;entryY=0.5;entryDx=0;entryDy=0;" edge="1" parent="d-VJ-QEy7T55_uepb2rt-55" source="d-VJ-QEy7T55_uepb2rt-75" target="d-VJ-QEy7T55_uepb2rt-59">
          <mxGeometry relative="1" as="geometry" />
        </mxCell>
        <mxCell id="d-VJ-QEy7T55_uepb2rt-75" value="" style="ellipse;whiteSpace=wrap;html=1;aspect=fixed;fillColor=#d5e8d4;strokeColor=#82b366;" vertex="1" parent="d-VJ-QEy7T55_uepb2rt-55">
          <mxGeometry x="80" y="85" width="40" height="40" as="geometry" />
        </mxCell>
        <mxCell id="d-VJ-QEy7T55_uepb2rt-79" style="edgeStyle=orthogonalEdgeStyle;rounded=0;orthogonalLoop=1;jettySize=auto;html=1;entryX=0;entryY=0.5;entryDx=0;entryDy=0;" edge="1" parent="d-VJ-QEy7T55_uepb2rt-55" source="d-VJ-QEy7T55_uepb2rt-77" target="d-VJ-QEy7T55_uepb2rt-57">
          <mxGeometry relative="1" as="geometry" />
        </mxCell>
        <mxCell id="dIDU0ldeqhqFMtYOlS6n-1" style="edgeStyle=orthogonalEdgeStyle;rounded=0;orthogonalLoop=1;jettySize=auto;html=1;entryX=0.5;entryY=1;entryDx=0;entryDy=0;" edge="1" parent="d-VJ-QEy7T55_uepb2rt-55" source="d-VJ-QEy7T55_uepb2rt-77" target="d-VJ-QEy7T55_uepb2rt-59">
          <mxGeometry relative="1" as="geometry">
            <Array as="points">
              <mxPoint x="350" y="165" />
              <mxPoint x="230" y="165" />
            </Array>
          </mxGeometry>
        </mxCell>
        <mxCell id="d-VJ-QEy7T55_uepb2rt-77" value="Formulario?" style="rhombus;whiteSpace=wrap;html=1;fillColor=#fff2cc;strokeColor=#d6b656;" vertex="1" parent="d-VJ-QEy7T55_uepb2rt-55">
          <mxGeometry x="330" y="65" width="80" height="80" as="geometry" />
        </mxCell>
        <mxCell id="d-VJ-QEy7T55_uepb2rt-80" style="edgeStyle=orthogonalEdgeStyle;rounded=0;orthogonalLoop=1;jettySize=auto;html=1;entryX=0.5;entryY=0;entryDx=0;entryDy=0;" edge="1" parent="d-VJ-QEy7T55_uepb2rt-55" source="d-VJ-QEy7T55_uepb2rt-57" target="d-VJ-QEy7T55_uepb2rt-59">
          <mxGeometry relative="1" as="geometry">
            <Array as="points">
              <mxPoint x="540" y="55" />
              <mxPoint x="230" y="55" />
            </Array>
          </mxGeometry>
        </mxCell>
        <mxCell id="d-VJ-QEy7T55_uepb2rt-57" value="Tratar dados do cliente" style="rounded=1;whiteSpace=wrap;html=1;" vertex="1" parent="d-VJ-QEy7T55_uepb2rt-55">
          <mxGeometry x="480" y="80" width="120" height="50" as="geometry" />
        </mxCell>
        <mxCell id="dIDU0ldeqhqFMtYOlS6n-2" value="Não" style="text;html=1;align=center;verticalAlign=middle;whiteSpace=wrap;rounded=0;" vertex="1" parent="d-VJ-QEy7T55_uepb2rt-55">
          <mxGeometry x="230" y="170" width="60" height="30" as="geometry" />
        </mxCell>
        <mxCell id="dIDU0ldeqhqFMtYOlS6n-3" value="Sim" style="text;html=1;align=center;verticalAlign=middle;whiteSpace=wrap;rounded=0;" vertex="1" parent="d-VJ-QEy7T55_uepb2rt-55">
          <mxGeometry x="305" y="31" width="60" height="30" as="geometry" />
        </mxCell>
        <mxCell id="d-VJ-QEy7T55_uepb2rt-62" value="" style="rounded=0;whiteSpace=wrap;html=1;" vertex="1" parent="1">
          <mxGeometry x="97" y="930" width="730" height="160" as="geometry" />
        </mxCell>
        <mxCell id="d-VJ-QEy7T55_uepb2rt-63" value="Coleta de lixo" style="rounded=1;whiteSpace=wrap;html=1;" vertex="1" parent="1">
          <mxGeometry x="550" y="980" width="120" height="60" as="geometry" />
        </mxCell>
        <mxCell id="d-VJ-QEy7T55_uepb2rt-65" style="edgeStyle=orthogonalEdgeStyle;rounded=0;orthogonalLoop=1;jettySize=auto;html=1;" edge="1" parent="1" source="d-VJ-QEy7T55_uepb2rt-64" target="d-VJ-QEy7T55_uepb2rt-63">
          <mxGeometry relative="1" as="geometry" />
        </mxCell>
        <mxCell id="d-VJ-QEy7T55_uepb2rt-64" value="Requisição do governo" style="rhombus;whiteSpace=wrap;html=1;fillColor=#fff2cc;strokeColor=#d6b656;" vertex="1" parent="1">
          <mxGeometry x="420" y="970" width="80" height="80" as="geometry" />
        </mxCell>
        <mxCell id="d-VJ-QEy7T55_uepb2rt-68" value="" style="edgeStyle=orthogonalEdgeStyle;rounded=0;orthogonalLoop=1;jettySize=auto;html=1;" edge="1" parent="1" source="d-VJ-QEy7T55_uepb2rt-67" target="d-VJ-QEy7T55_uepb2rt-64">
          <mxGeometry relative="1" as="geometry" />
        </mxCell>
        <mxCell id="d-VJ-QEy7T55_uepb2rt-67" value="Treinamento" style="rounded=1;whiteSpace=wrap;html=1;" vertex="1" parent="1">
          <mxGeometry x="240" y="980" width="120" height="60" as="geometry" />
        </mxCell>
        <mxCell id="d-VJ-QEy7T55_uepb2rt-69" style="edgeStyle=orthogonalEdgeStyle;rounded=0;orthogonalLoop=1;jettySize=auto;html=1;entryX=0.409;entryY=0.017;entryDx=0;entryDy=0;entryPerimeter=0;" edge="1" parent="1" source="d-VJ-QEy7T55_uepb2rt-64" target="d-VJ-QEy7T55_uepb2rt-67">
          <mxGeometry relative="1" as="geometry">
            <Array as="points">
              <mxPoint x="460" y="960" />
              <mxPoint x="289" y="960" />
            </Array>
          </mxGeometry>
        </mxCell>
        <mxCell id="d-VJ-QEy7T55_uepb2rt-70" value="Não" style="text;html=1;align=center;verticalAlign=middle;whiteSpace=wrap;rounded=0;" vertex="1" parent="1">
          <mxGeometry x="340" y="930" width="60" height="30" as="geometry" />
        </mxCell>
        <mxCell id="d-VJ-QEy7T55_uepb2rt-72" value="" style="edgeStyle=orthogonalEdgeStyle;rounded=0;orthogonalLoop=1;jettySize=auto;html=1;" edge="1" parent="1" source="d-VJ-QEy7T55_uepb2rt-71" target="d-VJ-QEy7T55_uepb2rt-67">
          <mxGeometry relative="1" as="geometry" />
        </mxCell>
        <mxCell id="d-VJ-QEy7T55_uepb2rt-71" value="" style="ellipse;whiteSpace=wrap;html=1;aspect=fixed;fillColor=#d5e8d4;strokeColor=#82b366;" vertex="1" parent="1">
          <mxGeometry x="140" y="995" width="30" height="30" as="geometry" />
        </mxCell>
        <mxCell id="d-VJ-QEy7T55_uepb2rt-73" value="Fluxo" style="text;html=1;align=center;verticalAlign=middle;whiteSpace=wrap;rounded=0;" vertex="1" parent="1">
          <mxGeometry x="430" y="880" width="60" height="30" as="geometry" />
        </mxCell>
        <mxCell id="d-VJ-QEy7T55_uepb2rt-74" value="Sim" style="text;html=1;align=center;verticalAlign=middle;whiteSpace=wrap;rounded=0;" vertex="1" parent="1">
          <mxGeometry x="490" y="980" width="60" height="30" as="geometry" />
        </mxCell>
        <mxCell id="d-VJ-QEy7T55_uepb2rt-81" style="edgeStyle=orthogonalEdgeStyle;rounded=0;orthogonalLoop=1;jettySize=auto;html=1;entryX=0.5;entryY=1;entryDx=0;entryDy=0;" edge="1" parent="1" source="d-VJ-QEy7T55_uepb2rt-53" target="d-VJ-QEy7T55_uepb2rt-77">
          <mxGeometry relative="1" as="geometry" />
        </mxCell>
        <mxCell id="d-VJ-QEy7T55_uepb2rt-82" style="edgeStyle=orthogonalEdgeStyle;rounded=0;orthogonalLoop=1;jettySize=auto;html=1;entryX=0.572;entryY=1.039;entryDx=0;entryDy=0;entryPerimeter=0;" edge="1" parent="1" source="d-VJ-QEy7T55_uepb2rt-51" target="d-VJ-QEy7T55_uepb2rt-53">
          <mxGeometry relative="1" as="geometry">
            <Array as="points">
              <mxPoint x="730" y="2421" />
              <mxPoint x="469" y="2421" />
            </Array>
          </mxGeometry>
        </mxCell>
      </root>
    </mxGraphModel>
  </diagram>
  <diagram id="uuC1ExW2EnVE1ZP-EElV" name="ASIS">
    <mxGraphModel dx="1426" dy="781" grid="1" gridSize="10" guides="1" tooltips="1" connect="1" arrows="1" fold="1" page="1" pageScale="1" pageWidth="827" pageHeight="1169" math="0" shadow="0">
      <root>
        <mxCell id="0" />
        <mxCell id="1" parent="0" />
        <mxCell id="wTCXj8QKER4XCNnipOte-1" value="Coletor" style="swimlane;horizontal=0;whiteSpace=wrap;html=1;" vertex="1" parent="1">
          <mxGeometry x="60" y="80" width="740" height="200" as="geometry" />
        </mxCell>
        <mxCell id="wTCXj8QKER4XCNnipOte-2" style="edgeStyle=orthogonalEdgeStyle;rounded=0;orthogonalLoop=1;jettySize=auto;html=1;entryX=0;entryY=0.5;entryDx=0;entryDy=0;" edge="1" parent="wTCXj8QKER4XCNnipOte-1" source="wTCXj8QKER4XCNnipOte-3" target="wTCXj8QKER4XCNnipOte-5">
          <mxGeometry relative="1" as="geometry" />
        </mxCell>
        <mxCell id="wTCXj8QKER4XCNnipOte-3" value="Deslocar até a area de coleta" style="rounded=1;whiteSpace=wrap;html=1;" vertex="1" parent="wTCXj8QKER4XCNnipOte-1">
          <mxGeometry x="130" y="80" width="120" height="60" as="geometry" />
        </mxCell>
        <mxCell id="wTCXj8QKER4XCNnipOte-4" style="edgeStyle=orthogonalEdgeStyle;rounded=0;orthogonalLoop=1;jettySize=auto;html=1;entryX=0;entryY=0.5;entryDx=0;entryDy=0;" edge="1" parent="wTCXj8QKER4XCNnipOte-1" source="wTCXj8QKER4XCNnipOte-5" target="wTCXj8QKER4XCNnipOte-6">
          <mxGeometry relative="1" as="geometry" />
        </mxCell>
        <mxCell id="wTCXj8QKER4XCNnipOte-5" value="Realizar a coleta de lixo" style="rounded=1;whiteSpace=wrap;html=1;" vertex="1" parent="wTCXj8QKER4XCNnipOte-1">
          <mxGeometry x="320" y="80" width="120" height="60" as="geometry" />
        </mxCell>
        <mxCell id="wTCXj8QKER4XCNnipOte-6" value="Enviar dados para coleta" style="rounded=1;whiteSpace=wrap;html=1;" vertex="1" parent="wTCXj8QKER4XCNnipOte-1">
          <mxGeometry x="490" y="80" width="120" height="60" as="geometry" />
        </mxCell>
        <mxCell id="wTCXj8QKER4XCNnipOte-7" value="Governo" style="swimlane;horizontal=0;whiteSpace=wrap;html=1;" vertex="1" parent="1">
          <mxGeometry x="60" y="280" width="740" height="200" as="geometry" />
        </mxCell>
        <mxCell id="wTCXj8QKER4XCNnipOte-8" value="Enviar pontos de coleta de lixo" style="rounded=1;whiteSpace=wrap;html=1;" vertex="1" parent="wTCXj8QKER4XCNnipOte-7">
          <mxGeometry x="130" y="65" width="120" height="60" as="geometry" />
        </mxCell>
        <mxCell id="wTCXj8QKER4XCNnipOte-9" value="" style="edgeStyle=orthogonalEdgeStyle;rounded=0;orthogonalLoop=1;jettySize=auto;html=1;" edge="1" parent="wTCXj8QKER4XCNnipOte-7" source="wTCXj8QKER4XCNnipOte-10" target="wTCXj8QKER4XCNnipOte-8">
          <mxGeometry relative="1" as="geometry" />
        </mxCell>
        <mxCell id="wTCXj8QKER4XCNnipOte-10" value="" style="ellipse;whiteSpace=wrap;html=1;aspect=fixed;" vertex="1" parent="wTCXj8QKER4XCNnipOte-7">
          <mxGeometry x="50" y="80" width="30" height="30" as="geometry" />
        </mxCell>
        <mxCell id="wTCXj8QKER4XCNnipOte-11" value="Armazenar e atualizar dados de coleta de determinada região" style="rounded=1;whiteSpace=wrap;html=1;" vertex="1" parent="wTCXj8QKER4XCNnipOte-7">
          <mxGeometry x="490" y="65" width="120" height="60" as="geometry" />
        </mxCell>
        <mxCell id="wTCXj8QKER4XCNnipOte-12" style="edgeStyle=orthogonalEdgeStyle;rounded=0;orthogonalLoop=1;jettySize=auto;html=1;entryX=0.5;entryY=1;entryDx=0;entryDy=0;" edge="1" parent="1" source="wTCXj8QKER4XCNnipOte-8" target="wTCXj8QKER4XCNnipOte-3">
          <mxGeometry relative="1" as="geometry" />
        </mxCell>
        <mxCell id="wTCXj8QKER4XCNnipOte-13" style="edgeStyle=orthogonalEdgeStyle;rounded=0;orthogonalLoop=1;jettySize=auto;html=1;entryX=0.5;entryY=0;entryDx=0;entryDy=0;" edge="1" parent="1" source="wTCXj8QKER4XCNnipOte-6" target="wTCXj8QKER4XCNnipOte-11">
          <mxGeometry relative="1" as="geometry" />
        </mxCell>
      </root>
    </mxGraphModel>
  </diagram>
  <diagram id="k8DME1YZ3myZ3cDt4jJw" name="CASOSDEUSO">
    <mxGraphModel dx="2037" dy="1116" grid="1" gridSize="10" guides="1" tooltips="1" connect="1" arrows="1" fold="1" page="1" pageScale="1" pageWidth="827" pageHeight="1169" math="0" shadow="0">
      <root>
        <mxCell id="0" />
        <mxCell id="1" parent="0" />
        <mxCell id="48PQxRek5Wm6yvdUXE-k-1" value="Diagrama de Casos de Uso" style="swimlane;whiteSpace=wrap;html=1;" vertex="1" parent="1">
          <mxGeometry x="190" y="20" width="420" height="940" as="geometry" />
        </mxCell>
        <mxCell id="48PQxRek5Wm6yvdUXE-k-2" value="UC01:Enviar requisição de coleta" style="rounded=1;whiteSpace=wrap;html=1;" vertex="1" parent="48PQxRek5Wm6yvdUXE-k-1">
          <mxGeometry x="150" y="110" width="120" height="60" as="geometry" />
        </mxCell>
        <mxCell id="48PQxRek5Wm6yvdUXE-k-4" value="UC02:Gerar rota otimizada de coleta" style="rounded=1;whiteSpace=wrap;html=1;" vertex="1" parent="48PQxRek5Wm6yvdUXE-k-1">
          <mxGeometry x="150" y="210" width="120" height="60" as="geometry" />
        </mxCell>
        <mxCell id="48PQxRek5Wm6yvdUXE-k-5" value="UC03:Recebimento de rota de coleta" style="rounded=1;whiteSpace=wrap;html=1;" vertex="1" parent="48PQxRek5Wm6yvdUXE-k-1">
          <mxGeometry x="150" y="300" width="120" height="60" as="geometry" />
        </mxCell>
        <mxCell id="48PQxRek5Wm6yvdUXE-k-6" value="UC04:Realizar rota de coleta" style="rounded=1;whiteSpace=wrap;html=1;" vertex="1" parent="48PQxRek5Wm6yvdUXE-k-1">
          <mxGeometry x="150" y="390" width="120" height="60" as="geometry" />
        </mxCell>
        <mxCell id="48PQxRek5Wm6yvdUXE-k-7" value="UC05:Recolher de lixo" style="rounded=1;whiteSpace=wrap;html=1;" vertex="1" parent="48PQxRek5Wm6yvdUXE-k-1">
          <mxGeometry x="150" y="480" width="120" height="60" as="geometry" />
        </mxCell>
        <mxCell id="48PQxRek5Wm6yvdUXE-k-8" value="UC06:Acompanhamento de coleta de lixo" style="rounded=1;whiteSpace=wrap;html=1;" vertex="1" parent="48PQxRek5Wm6yvdUXE-k-1">
          <mxGeometry x="150" y="570" width="120" height="60" as="geometry" />
        </mxCell>
        <mxCell id="48PQxRek5Wm6yvdUXE-k-14" value="UC07:Acesso ao aplicativo" style="rounded=1;whiteSpace=wrap;html=1;" vertex="1" parent="48PQxRek5Wm6yvdUXE-k-1">
          <mxGeometry x="150" y="710" width="120" height="60" as="geometry" />
        </mxCell>
        <mxCell id="48PQxRek5Wm6yvdUXE-k-15" value="UC08:Envio de formulário" style="rounded=1;whiteSpace=wrap;html=1;" vertex="1" parent="48PQxRek5Wm6yvdUXE-k-1">
          <mxGeometry x="150" y="800" width="120" height="60" as="geometry" />
        </mxCell>
        <mxCell id="48PQxRek5Wm6yvdUXE-k-12" style="edgeStyle=orthogonalEdgeStyle;rounded=0;orthogonalLoop=1;jettySize=auto;html=1;entryX=0;entryY=0.5;entryDx=0;entryDy=0;" edge="1" parent="1" source="48PQxRek5Wm6yvdUXE-k-9" target="48PQxRek5Wm6yvdUXE-k-2">
          <mxGeometry relative="1" as="geometry">
            <Array as="points">
              <mxPoint x="160" y="350" />
              <mxPoint x="160" y="160" />
            </Array>
          </mxGeometry>
        </mxCell>
        <mxCell id="48PQxRek5Wm6yvdUXE-k-13" style="edgeStyle=orthogonalEdgeStyle;rounded=0;orthogonalLoop=1;jettySize=auto;html=1;entryX=0;entryY=0.5;entryDx=0;entryDy=0;" edge="1" parent="1" source="48PQxRek5Wm6yvdUXE-k-9" target="48PQxRek5Wm6yvdUXE-k-8">
          <mxGeometry relative="1" as="geometry">
            <Array as="points">
              <mxPoint x="160" y="350" />
              <mxPoint x="160" y="620" />
            </Array>
          </mxGeometry>
        </mxCell>
        <mxCell id="48PQxRek5Wm6yvdUXE-k-9" value="Governo" style="shape=umlActor;verticalLabelPosition=bottom;verticalAlign=top;html=1;outlineConnect=0;" vertex="1" parent="1">
          <mxGeometry x="90" y="320" width="30" height="60" as="geometry" />
        </mxCell>
        <mxCell id="48PQxRek5Wm6yvdUXE-k-23" style="edgeStyle=orthogonalEdgeStyle;rounded=0;orthogonalLoop=1;jettySize=auto;html=1;entryX=0;entryY=0.5;entryDx=0;entryDy=0;" edge="1" parent="1" source="48PQxRek5Wm6yvdUXE-k-20" target="48PQxRek5Wm6yvdUXE-k-5">
          <mxGeometry relative="1" as="geometry" />
        </mxCell>
        <mxCell id="48PQxRek5Wm6yvdUXE-k-24" style="edgeStyle=orthogonalEdgeStyle;rounded=0;orthogonalLoop=1;jettySize=auto;html=1;entryX=0;entryY=0.5;entryDx=0;entryDy=0;" edge="1" parent="1" source="48PQxRek5Wm6yvdUXE-k-20" target="48PQxRek5Wm6yvdUXE-k-6">
          <mxGeometry relative="1" as="geometry" />
        </mxCell>
        <mxCell id="48PQxRek5Wm6yvdUXE-k-25" style="edgeStyle=orthogonalEdgeStyle;rounded=0;orthogonalLoop=1;jettySize=auto;html=1;entryX=0;entryY=0.5;entryDx=0;entryDy=0;" edge="1" parent="1" source="48PQxRek5Wm6yvdUXE-k-20" target="48PQxRek5Wm6yvdUXE-k-7">
          <mxGeometry relative="1" as="geometry" />
        </mxCell>
        <mxCell id="48PQxRek5Wm6yvdUXE-k-20" value="Coletor" style="shape=umlActor;verticalLabelPosition=bottom;verticalAlign=top;html=1;outlineConnect=0;" vertex="1" parent="1">
          <mxGeometry x="90" y="670" width="30" height="60" as="geometry" />
        </mxCell>
        <mxCell id="48PQxRek5Wm6yvdUXE-k-27" style="edgeStyle=orthogonalEdgeStyle;rounded=0;orthogonalLoop=1;jettySize=auto;html=1;entryX=1;entryY=0.5;entryDx=0;entryDy=0;" edge="1" parent="1" source="48PQxRek5Wm6yvdUXE-k-26" target="48PQxRek5Wm6yvdUXE-k-14">
          <mxGeometry relative="1" as="geometry" />
        </mxCell>
        <mxCell id="48PQxRek5Wm6yvdUXE-k-28" style="edgeStyle=orthogonalEdgeStyle;rounded=0;orthogonalLoop=1;jettySize=auto;html=1;entryX=1;entryY=0.5;entryDx=0;entryDy=0;" edge="1" parent="1" source="48PQxRek5Wm6yvdUXE-k-26" target="48PQxRek5Wm6yvdUXE-k-15">
          <mxGeometry relative="1" as="geometry" />
        </mxCell>
        <mxCell id="48PQxRek5Wm6yvdUXE-k-26" value="Cidadão" style="shape=umlActor;verticalLabelPosition=bottom;verticalAlign=top;html=1;outlineConnect=0;" vertex="1" parent="1">
          <mxGeometry x="700" y="820" width="30" height="60" as="geometry" />
        </mxCell>
        <mxCell id="48PQxRek5Wm6yvdUXE-k-33" style="edgeStyle=orthogonalEdgeStyle;rounded=0;orthogonalLoop=1;jettySize=auto;html=1;entryX=1;entryY=0.5;entryDx=0;entryDy=0;" edge="1" parent="1" source="48PQxRek5Wm6yvdUXE-k-32" target="48PQxRek5Wm6yvdUXE-k-2">
          <mxGeometry relative="1" as="geometry" />
        </mxCell>
        <mxCell id="48PQxRek5Wm6yvdUXE-k-34" style="edgeStyle=orthogonalEdgeStyle;rounded=0;orthogonalLoop=1;jettySize=auto;html=1;entryX=1;entryY=0.5;entryDx=0;entryDy=0;" edge="1" parent="1" source="48PQxRek5Wm6yvdUXE-k-32" target="48PQxRek5Wm6yvdUXE-k-4">
          <mxGeometry relative="1" as="geometry" />
        </mxCell>
        <mxCell id="48PQxRek5Wm6yvdUXE-k-35" style="edgeStyle=orthogonalEdgeStyle;rounded=0;orthogonalLoop=1;jettySize=auto;html=1;entryX=1;entryY=0.5;entryDx=0;entryDy=0;" edge="1" parent="1" source="48PQxRek5Wm6yvdUXE-k-32" target="48PQxRek5Wm6yvdUXE-k-5">
          <mxGeometry relative="1" as="geometry" />
        </mxCell>
        <mxCell id="48PQxRek5Wm6yvdUXE-k-36" style="edgeStyle=orthogonalEdgeStyle;rounded=0;orthogonalLoop=1;jettySize=auto;html=1;entryX=1;entryY=0.5;entryDx=0;entryDy=0;" edge="1" parent="1" source="48PQxRek5Wm6yvdUXE-k-32" target="48PQxRek5Wm6yvdUXE-k-8">
          <mxGeometry relative="1" as="geometry" />
        </mxCell>
        <mxCell id="48PQxRek5Wm6yvdUXE-k-37" style="edgeStyle=orthogonalEdgeStyle;rounded=0;orthogonalLoop=1;jettySize=auto;html=1;entryX=1;entryY=0.5;entryDx=0;entryDy=0;" edge="1" parent="1" source="48PQxRek5Wm6yvdUXE-k-32" target="48PQxRek5Wm6yvdUXE-k-7">
          <mxGeometry relative="1" as="geometry" />
        </mxCell>
        <mxCell id="48PQxRek5Wm6yvdUXE-k-38" style="edgeStyle=orthogonalEdgeStyle;rounded=0;orthogonalLoop=1;jettySize=auto;html=1;entryX=1;entryY=0.5;entryDx=0;entryDy=0;" edge="1" parent="1" source="48PQxRek5Wm6yvdUXE-k-32" target="48PQxRek5Wm6yvdUXE-k-6">
          <mxGeometry relative="1" as="geometry" />
        </mxCell>
        <mxCell id="48PQxRek5Wm6yvdUXE-k-32" value="Modelo (Sistema)" style="shape=umlActor;verticalLabelPosition=bottom;verticalAlign=top;html=1;outlineConnect=0;" vertex="1" parent="1">
          <mxGeometry x="700" y="480" width="30" height="60" as="geometry" />
        </mxCell>
        <mxCell id="48PQxRek5Wm6yvdUXE-k-41" style="edgeStyle=orthogonalEdgeStyle;rounded=0;orthogonalLoop=1;jettySize=auto;html=1;entryX=0;entryY=0.5;entryDx=0;entryDy=0;" edge="1" parent="1" source="48PQxRek5Wm6yvdUXE-k-39" target="48PQxRek5Wm6yvdUXE-k-15">
          <mxGeometry relative="1" as="geometry" />
        </mxCell>
        <mxCell id="48PQxRek5Wm6yvdUXE-k-39" value="Aplicativo" style="shape=umlActor;verticalLabelPosition=bottom;verticalAlign=top;html=1;outlineConnect=0;" vertex="1" parent="1">
          <mxGeometry x="90" y="832" width="30" height="60" as="geometry" />
        </mxCell>
        <mxCell id="48PQxRek5Wm6yvdUXE-k-40" style="edgeStyle=orthogonalEdgeStyle;rounded=0;orthogonalLoop=1;jettySize=auto;html=1;entryX=0;entryY=0.4;entryDx=0;entryDy=0;entryPerimeter=0;" edge="1" parent="1" source="48PQxRek5Wm6yvdUXE-k-39" target="48PQxRek5Wm6yvdUXE-k-14">
          <mxGeometry relative="1" as="geometry" />
        </mxCell>
      </root>
    </mxGraphModel>
  </diagram>
</mxfile>
